<svg width="900.0" height="1754.065334794732" viewBox="0 0 900.0 1754.065334794732" xmlns="http://www.w3.org/2000/svg">
<style>/* font and background color specifications */
svg {
    font-family: SFMono-Regular,Consolas,Liberation Mono,Menlo,monospace;
    font-size: 14px;
    font-kerning: normal;
    text-rendering: optimizeLegibility;
    fill: #24292e;
}

/* default key styling */
rect {
    fill: #f6f8fa;
    stroke: #c9cccf;
    stroke-width: 1;
}

/* color accent for combo boxes */
rect.combo {
    fill: #cdf;
}

/* color accent for held keys */
rect.held, rect.combo.held {
    fill: #fdd;
}

/* color accent for ghost (optional) keys */
rect.ghost, rect.combo.ghost {
    fill: #ddd;
}

text {
    text-anchor: middle;
    dominant-baseline: middle;
}

/* styling for layer labels */
text.label {
    font-weight: bold;
    text-anchor: start;
    stroke: white;
    stroke-width: 2;
    paint-order: stroke;
}

/* styling for combo tap, and key hold/shifted label text */
text.combo, text.hold, text.shifted {
    font-size: 11px;
}

text.hold {
    text-anchor: middle;
    dominant-baseline: auto;
}

text.shifted {
    text-anchor: middle;
    dominant-baseline: hanging;
}

/* styling for hold/shifted label text in combo box */
text.combo.hold, text.combo.shifted {
    font-size: 8px;
}

/* styling for combo dendrons */
path {
    stroke-width: 1;
    stroke: gray;
    fill: none;
}
</style>
<g class="layer-Base">
<text x="30.0" y="28.0" class="label">Base:</text>
<rect rx="6.0" ry="6.0" x="32.0" y="123.80000000000001" width="52.0" height="52.0" class=""/>
<text x="58.0" y="149.8" class="tap">`</text>
<text x="58.0" y="125.80000000000001" class="shifted">~</text>
<rect rx="6.0" ry="6.0" x="88.0" y="123.80000000000001" width="52.0" height="52.0" class=""/>
<text x="114.0" y="149.8" class="tap">Q</text>
<rect rx="6.0" ry="6.0" x="144.0" y="109.80000000000001" width="52.0" height="52.0" class=""/>
<text x="170.0" y="135.8" class="tap">W</text>
<rect rx="6.0" ry="6.0" x="200.0" y="102.80000000000001" width="52.0" height="52.0" class=""/>
<text x="226.0" y="128.8" class="tap">F</text>
<rect rx="6.0" ry="6.0" x="256.0" y="109.80000000000001" width="52.0" height="52.0" class=""/>
<text x="282.0" y="135.8" class="tap">P</text>
<rect rx="6.0" ry="6.0" x="312.0" y="116.80000000000001" width="52.0" height="52.0" class=""/>
<text x="338.0" y="142.8" class="tap">B</text>
<rect rx="6.0" ry="6.0" x="536.0" y="116.80000000000001" width="52.0" height="52.0" class=""/>
<text x="562.0" y="142.8" class="tap">J</text>
<rect rx="6.0" ry="6.0" x="592.0" y="109.80000000000001" width="52.0" height="52.0" class=""/>
<text x="618.0" y="135.8" class="tap">L</text>
<rect rx="6.0" ry="6.0" x="648.0" y="102.80000000000001" width="52.0" height="52.0" class=""/>
<text x="674.0" y="128.8" class="tap">U</text>
<rect rx="6.0" ry="6.0" x="704.0" y="109.80000000000001" width="52.0" height="52.0" class=""/>
<text x="730.0" y="135.8" class="tap">Y</text>
<rect rx="6.0" ry="6.0" x="760.0" y="123.80000000000001" width="52.0" height="52.0" class=""/>
<text x="786.0" y="149.8" class="tap">;</text>
<text x="786.0" y="125.80000000000001" class="shifted">:</text>
<rect rx="6.0" ry="6.0" x="816.0" y="123.80000000000001" width="52.0" height="52.0" class=""/>
<text x="842.0" y="149.8" class="tap">=</text>
<text x="842.0" y="125.80000000000001" class="shifted">+</text>
<rect rx="6.0" ry="6.0" x="32.0" y="179.8" width="52.0" height="52.0" class=""/>
<text x="58.0" y="205.8" class="tap">Esc</text>
<text x="58.0" y="229.8" class="hold">Ctrl</text>
<rect rx="6.0" ry="6.0" x="88.0" y="179.8" width="52.0" height="52.0" class=""/>
<text x="114.0" y="205.8" class="tap">A</text>
<text x="114.0" y="229.8" class="hold">Super</text>
<rect rx="6.0" ry="6.0" x="144.0" y="165.8" width="52.0" height="52.0" class=""/>
<text x="170.0" y="191.8" class="tap">R</text>
<text x="170.0" y="215.8" class="hold">Alt</text>
<rect rx="6.0" ry="6.0" x="200.0" y="158.8" width="52.0" height="52.0" class=""/>
<text x="226.0" y="184.8" class="tap">S</text>
<text x="226.0" y="208.8" class="hold">Shift</text>
<rect rx="6.0" ry="6.0" x="256.0" y="165.8" width="52.0" height="52.0" class=""/>
<text x="282.0" y="191.8" class="tap">T</text>
<text x="282.0" y="215.8" class="hold">Ctrl</text>
<rect rx="6.0" ry="6.0" x="312.0" y="172.8" width="52.0" height="52.0" class=""/>
<text x="338.0" y="198.8" class="tap">G</text>
<rect rx="6.0" ry="6.0" x="536.0" y="172.8" width="52.0" height="52.0" class=""/>
<text x="562.0" y="198.8" class="tap">M</text>
<rect rx="6.0" ry="6.0" x="592.0" y="165.8" width="52.0" height="52.0" class=""/>
<text x="618.0" y="191.8" class="tap">N</text>
<text x="618.0" y="215.8" class="hold">Ctrl</text>
<rect rx="6.0" ry="6.0" x="648.0" y="158.8" width="52.0" height="52.0" class=""/>
<text x="674.0" y="184.8" class="tap">E</text>
<text x="674.0" y="208.8" class="hold">Shift</text>
<rect rx="6.0" ry="6.0" x="704.0" y="165.8" width="52.0" height="52.0" class=""/>
<text x="730.0" y="191.8" class="tap">I</text>
<text x="730.0" y="215.8" class="hold">Alt</text>
<rect rx="6.0" ry="6.0" x="760.0" y="179.8" width="52.0" height="52.0" class=""/>
<text x="786.0" y="205.8" class="tap">O</text>
<text x="786.0" y="229.8" class="hold">Super</text>
<rect rx="6.0" ry="6.0" x="816.0" y="179.8" width="52.0" height="52.0" class=""/>
<text x="842.0" y="205.8" class="tap">&#x27;</text>
<text x="842.0" y="229.8" class="hold">Ctrl</text>
<text x="842.0" y="181.8" class="shifted">&quot;</text>
<rect rx="6.0" ry="6.0" x="32.0" y="235.8" width="52.0" height="52.0" class=""/>
<text x="58.0" y="261.8" class="tap">Del</text>
<rect rx="6.0" ry="6.0" x="88.0" y="235.8" width="52.0" height="52.0" class=""/>
<text x="114.0" y="261.8" class="tap">Z</text>
<rect rx="6.0" ry="6.0" x="144.0" y="221.8" width="52.0" height="52.0" class=""/>
<text x="170.0" y="247.8" class="tap">X</text>
<rect rx="6.0" ry="6.0" x="200.0" y="214.8" width="52.0" height="52.0" class=""/>
<text x="226.0" y="240.8" class="tap">C</text>
<rect rx="6.0" ry="6.0" x="256.0" y="221.8" width="52.0" height="52.0" class=""/>
<text x="282.0" y="247.8" class="tap">D</text>
<rect rx="6.0" ry="6.0" x="312.0" y="228.8" width="52.0" height="52.0" class=""/>
<text x="338.0" y="254.8" class="tap">V</text>
<rect rx="6.0" ry="6.0" x="536.0" y="228.8" width="52.0" height="52.0" class=""/>
<text x="562.0" y="254.8" class="tap">K</text>
<rect rx="6.0" ry="6.0" x="592.0" y="221.8" width="52.0" height="52.0" class=""/>
<text x="618.0" y="247.8" class="tap">H</text>
<rect rx="6.0" ry="6.0" x="648.0" y="214.8" width="52.0" height="52.0" class=""/>
<text x="674.0" y="240.8" class="tap">,</text>
<text x="674.0" y="216.8" class="shifted">&lt;</text>
<rect rx="6.0" ry="6.0" x="704.0" y="221.8" width="52.0" height="52.0" class=""/>
<text x="730.0" y="247.8" class="tap">.</text>
<text x="730.0" y="223.8" class="shifted">&gt;</text>
<rect rx="6.0" ry="6.0" x="760.0" y="235.8" width="52.0" height="52.0" class=""/>
<text x="786.0" y="261.8" class="tap">/</text>
<text x="786.0" y="237.8" class="shifted">?</text>
<rect rx="6.0" ry="6.0" x="816.0" y="235.8" width="52.0" height="52.0" class=""/>
<text x="842.0" y="261.8" class="tap">Enter</text>
<rect rx="6.0" ry="6.0" x="228.0" y="279.648" width="52.0" height="52.0" class="ghost"/>
<text x="254.0" y="305.648" class="ghost tap">Leader</text>
<g transform="rotate(15.0, 315.59999999999997, 313.88)">
<rect rx="6.0" ry="6.0" x="289.59999999999997" y="287.88" width="52.0" height="52.0" class=""/>
<text x="315.59999999999997" y="313.88" class="tap">Tab</text>
<text x="315.59999999999997" y="337.88" class="hold">Lower</text>
</g>
<g transform="rotate(30.0, 381.12, 325.08000000000004)">
<rect rx="6.0" ry="6.0" x="355.12" y="285.08000000000004" width="52.0" height="80.0" class=""/>
<text x="381.12" y="325.08000000000004" class="tap">Bspc</text>
<text x="381.12" y="363.08000000000004" class="hold">Shift</text>
</g>
<g transform="rotate(-30.0, 518.88, 325.08000000000004)">
<rect rx="6.0" ry="6.0" x="492.88" y="285.08000000000004" width="52.0" height="80.0" class=""/>
<text x="518.88" y="325.08000000000004" class="tap">Spc</text>
<text x="518.88" y="363.08000000000004" class="hold">Shift</text>
</g>
<g transform="rotate(-15.0, 584.4, 313.88)">
<rect rx="6.0" ry="6.0" x="558.4" y="287.88" width="52.0" height="52.0" class=""/>
<text x="584.4" y="313.88" class="tap">-</text>
<text x="584.4" y="337.88" class="hold">Raise</text>
<text x="584.4" y="289.88" class="shifted">_</text>
</g>
<rect rx="6.0" ry="6.0" x="620.0" y="279.648" width="52.0" height="52.0" class="ghost"/>
<text x="646.0" y="305.648" class="ghost tap">Leader</text>
<path d="M198.0,69.0 h-134.0 a6.0,6.0 0 0 0 -6.0,6.0 v56.13333333333334"/>
<path d="M198.0,69.0 h134.0 a6.0,6.0 0 0 1 6.0,6.0 v49.13333333333334"/>
<rect rx="6.0" ry="6.0" x="184.0" y="56.0" width="28.0" height="26.0" class="combo"/>
<text x="198.0" y="69.0" class="combo">Boot</text>
<path d="M702.0,69.0 h-134.0 a6.0,6.0 0 0 0 -6.0,6.0 v49.13333333333334"/>
<path d="M702.0,69.0 h134.0 a6.0,6.0 0 0 1 6.0,6.0 v56.13333333333334"/>
<rect rx="6.0" ry="6.0" x="688.0" y="56.0" width="28.0" height="26.0" class="combo"/>
<text x="702.0" y="69.0" class="combo">Boot</text>
<path d="M170.0,95.60000000000001 h-106.0 a6.0,6.0 0 0 0 -6.0,6.0 v29.533333333333335"/>
<path d="M170.0,95.60000000000001 h106.0 a6.0,6.0 0 0 1 6.0,6.0 v15.533333333333335"/>
<rect rx="6.0" ry="6.0" x="156.0" y="82.60000000000001" width="28.0" height="26.0" class="combo"/>
<text x="170.0" y="95.60000000000001" class="combo">Compile</text>
<path d="M730.0,95.60000000000001 h-106.0 a6.0,6.0 0 0 0 -6.0,6.0 v15.533333333333335"/>
<path d="M730.0,95.60000000000001 h106.0 a6.0,6.0 0 0 1 6.0,6.0 v29.533333333333335"/>
<rect rx="6.0" ry="6.0" x="716.0" y="82.60000000000001" width="28.0" height="26.0" class="combo"/>
<text x="730.0" y="95.60000000000001" class="combo">Compile</text>
<path d="M450.0,198.8 l-93.33333333333333,0.0"/>
<path d="M450.0,198.8 l93.33333333333333,0.0"/>
<rect rx="6.0" ry="6.0" x="436.0" y="185.8" width="28.0" height="26.0" class="combo"/>
<text x="450.0" y="198.8" class="combo">
<tspan x="450.0" dy="-0.6em">Cap</tspan><tspan x="450.0" dy="1.2em">word</tspan></text>
<rect rx="6.0" ry="6.0" x="184.0" y="231.3" width="28.0" height="26.0" class="combo"/>
<text x="198.0" y="244.3" class="combo">Copy</text>
<rect rx="6.0" ry="6.0" x="240.0" y="231.3" width="28.0" height="26.0" class="combo"/>
<text x="254.0" y="244.3" class="combo">Paste</text>
<path d="M219.56,368.08 h-155.56 a6.0,6.0 0 0 1 -6.0,-6.0 v-81.6133333333333"/>
<path d="M219.56,368.08 h155.56 a6.0,6.0 0 0 0 6.0,-6.0 v-8.999999999999943"/>
<rect rx="6.0" ry="6.0" x="205.56" y="355.08" width="28.0" height="26.0" class="combo"/>
<text x="219.56" y="368.08" class="combo">Bspc</text>
<path d="M680.44,368.08 h155.55999999999995 a6.0,6.0 0 0 0 6.0,-6.0 v-81.6133333333333"/>
<path d="M680.44,368.08 h-155.56000000000006 a6.0,6.0 0 0 1 -6.0,-6.0 v-8.999999999999943"/>
<rect rx="6.0" ry="6.0" x="666.44" y="355.08" width="28.0" height="26.0" class="combo"/>
<text x="680.44" y="368.08" class="combo">Spc</text>
</g>
<g class="layer-Raise">
<text x="30.0" y="403.4530669589464" class="label">Raise:</text>
<rect rx="6.0" ry="6.0" x="32.0" y="454.4530669589464" width="52.0" height="52.0" class=""/>
<rect rx="6.0" ry="6.0" x="88.0" y="454.4530669589464" width="52.0" height="52.0" class=""/>
<text x="114.0" y="480.4530669589464" class="tap">1</text>
<rect rx="6.0" ry="6.0" x="144.0" y="440.4530669589464" width="52.0" height="52.0" class=""/>
<text x="170.0" y="466.4530669589464" class="tap">2</text>
<rect rx="6.0" ry="6.0" x="200.0" y="433.4530669589464" width="52.0" height="52.0" class=""/>
<text x="226.0" y="459.4530669589464" class="tap">3</text>
<rect rx="6.0" ry="6.0" x="256.0" y="440.4530669589464" width="52.0" height="52.0" class=""/>
<text x="282.0" y="466.4530669589464" class="tap">4</text>
<rect rx="6.0" ry="6.0" x="312.0" y="447.4530669589464" width="52.0" height="52.0" class=""/>
<text x="338.0" y="473.4530669589464" class="tap">5</text>
<rect rx="6.0" ry="6.0" x="536.0" y="447.4530669589464" width="52.0" height="52.0" class=""/>
<text x="562.0" y="473.4530669589464" class="tap">6</text>
<rect rx="6.0" ry="6.0" x="592.0" y="440.4530669589464" width="52.0" height="52.0" class=""/>
<text x="618.0" y="466.4530669589464" class="tap">7</text>
<rect rx="6.0" ry="6.0" x="648.0" y="433.4530669589464" width="52.0" height="52.0" class=""/>
<text x="674.0" y="459.4530669589464" class="tap">8</text>
<rect rx="6.0" ry="6.0" x="704.0" y="440.4530669589464" width="52.0" height="52.0" class=""/>
<text x="730.0" y="466.4530669589464" class="tap">9</text>
<rect rx="6.0" ry="6.0" x="760.0" y="454.4530669589464" width="52.0" height="52.0" class=""/>
<text x="786.0" y="480.4530669589464" class="tap">0</text>
<rect rx="6.0" ry="6.0" x="816.0" y="454.4530669589464" width="52.0" height="52.0" class=""/>
<rect rx="6.0" ry="6.0" x="32.0" y="510.45306695894647" width="52.0" height="52.0" class=""/>
<rect rx="6.0" ry="6.0" x="88.0" y="510.45306695894647" width="52.0" height="52.0" class=""/>
<text x="114.0" y="536.4530669589465" class="tap">Super</text>
<rect rx="6.0" ry="6.0" x="144.0" y="496.45306695894647" width="52.0" height="52.0" class=""/>
<text x="170.0" y="522.4530669589465" class="tap">Alt</text>
<rect rx="6.0" ry="6.0" x="200.0" y="489.45306695894647" width="52.0" height="52.0" class=""/>
<text x="226.0" y="515.4530669589465" class="tap">Shift</text>
<rect rx="6.0" ry="6.0" x="256.0" y="496.45306695894647" width="52.0" height="52.0" class=""/>
<text x="282.0" y="522.4530669589465" class="tap">Ctrl</text>
<rect rx="6.0" ry="6.0" x="312.0" y="503.45306695894647" width="52.0" height="52.0" class=""/>
<rect rx="6.0" ry="6.0" x="536.0" y="503.45306695894647" width="52.0" height="52.0" class=""/>
<text x="562.0" y="529.4530669589465" class="tap">←</text>
<rect rx="6.0" ry="6.0" x="592.0" y="496.45306695894647" width="52.0" height="52.0" class=""/>
<text x="618.0" y="522.4530669589465" class="tap">↓</text>
<rect rx="6.0" ry="6.0" x="648.0" y="489.45306695894647" width="52.0" height="52.0" class=""/>
<text x="674.0" y="515.4530669589465" class="tap">↑</text>
<rect rx="6.0" ry="6.0" x="704.0" y="496.45306695894647" width="52.0" height="52.0" class=""/>
<text x="730.0" y="522.4530669589465" class="tap">→</text>
<rect rx="6.0" ry="6.0" x="760.0" y="510.45306695894647" width="52.0" height="52.0" class=""/>
<rect rx="6.0" ry="6.0" x="816.0" y="510.45306695894647" width="52.0" height="52.0" class=""/>
<rect rx="6.0" ry="6.0" x="32.0" y="566.4530669589465" width="52.0" height="52.0" class=""/>
<rect rx="6.0" ry="6.0" x="88.0" y="566.4530669589465" width="52.0" height="52.0" class=""/>
<text x="114.0" y="592.4530669589465" class="tap">Sticky</text>
<rect rx="6.0" ry="6.0" x="144.0" y="552.4530669589465" width="52.0" height="52.0" class=""/>
<rect rx="6.0" ry="6.0" x="200.0" y="545.4530669589465" width="52.0" height="52.0" class=""/>
<rect rx="6.0" ry="6.0" x="256.0" y="552.4530669589465" width="52.0" height="52.0" class=""/>
<rect rx="6.0" ry="6.0" x="312.0" y="559.4530669589465" width="52.0" height="52.0" class=""/>
<rect rx="6.0" ry="6.0" x="536.0" y="559.4530669589465" width="52.0" height="52.0" class=""/>
<text x="562.0" y="585.4530669589465" class="tap">⏭</text>
<rect rx="6.0" ry="6.0" x="592.0" y="552.4530669589465" width="52.0" height="52.0" class=""/>
<text x="618.0" y="578.4530669589465" class="tap">⏯</text>
<rect rx="6.0" ry="6.0" x="648.0" y="545.4530669589465" width="52.0" height="52.0" class=""/>
<rect rx="6.0" ry="6.0" x="704.0" y="552.4530669589465" width="52.0" height="52.0" class=""/>
<rect rx="6.0" ry="6.0" x="760.0" y="566.4530669589465" width="52.0" height="52.0" class=""/>
<text x="786.0" y="592.4530669589465" class="tap">Sticky</text>
<rect rx="6.0" ry="6.0" x="816.0" y="566.4530669589465" width="52.0" height="52.0" class=""/>
<rect rx="6.0" ry="6.0" x="228.0" y="610.3010669589464" width="52.0" height="52.0" class="ghost"/>
<g transform="rotate(15.0, 315.59999999999997, 644.5330669589464)">
<rect rx="6.0" ry="6.0" x="289.59999999999997" y="618.5330669589464" width="52.0" height="52.0" class=""/>
</g>
<g transform="rotate(30.0, 381.12, 655.7330669589464)">
<rect rx="6.0" ry="6.0" x="355.12" y="615.7330669589464" width="52.0" height="80.0" class=""/>
</g>
<g transform="rotate(-30.0, 518.88, 655.7330669589464)">
<rect rx="6.0" ry="6.0" x="492.88" y="615.7330669589464" width="52.0" height="80.0" class=""/>
</g>
<g transform="rotate(-15.0, 584.4, 644.5330669589464)">
<rect rx="6.0" ry="6.0" x="558.4" y="618.5330669589464" width="52.0" height="52.0" class="held"/>
</g>
<rect rx="6.0" ry="6.0" x="620.0" y="610.3010669589464" width="52.0" height="52.0" class="ghost"/>
<rect rx="6.0" ry="6.0" x="576.0" y="568.9530669589465" width="28.0" height="26.0" class="combo"/>
<text x="590.0" y="581.9530669589465" class="combo">⏮</text>
</g>
<g class="layer-Lower">
<text x="30.0" y="734.1061339178927" class="label">Lower:</text>
<rect rx="6.0" ry="6.0" x="32.0" y="785.1061339178927" width="52.0" height="52.0" class=""/>
<rect rx="6.0" ry="6.0" x="88.0" y="785.1061339178927" width="52.0" height="52.0" class=""/>
<text x="114.0" y="811.1061339178927" class="tap">!</text>
<rect rx="6.0" ry="6.0" x="144.0" y="771.1061339178927" width="52.0" height="52.0" class=""/>
<text x="170.0" y="797.1061339178927" class="tap">@</text>
<rect rx="6.0" ry="6.0" x="200.0" y="764.1061339178927" width="52.0" height="52.0" class=""/>
<text x="226.0" y="790.1061339178927" class="tap">#</text>
<rect rx="6.0" ry="6.0" x="256.0" y="771.1061339178927" width="52.0" height="52.0" class=""/>
<text x="282.0" y="797.1061339178927" class="tap">$</text>
<rect rx="6.0" ry="6.0" x="312.0" y="778.1061339178927" width="52.0" height="52.0" class=""/>
<text x="338.0" y="804.1061339178927" class="tap">%</text>
<rect rx="6.0" ry="6.0" x="536.0" y="778.1061339178927" width="52.0" height="52.0" class=""/>
<text x="562.0" y="804.1061339178927" class="tap">^</text>
<rect rx="6.0" ry="6.0" x="592.0" y="771.1061339178927" width="52.0" height="52.0" class=""/>
<text x="618.0" y="797.1061339178927" class="tap">&amp;</text>
<rect rx="6.0" ry="6.0" x="648.0" y="764.1061339178927" width="52.0" height="52.0" class=""/>
<text x="674.0" y="790.1061339178927" class="tap">*</text>
<rect rx="6.0" ry="6.0" x="704.0" y="771.1061339178927" width="52.0" height="52.0" class=""/>
<rect rx="6.0" ry="6.0" x="760.0" y="785.1061339178927" width="52.0" height="52.0" class=""/>
<text x="786.0" y="811.1061339178927" class="tap">:</text>
<rect rx="6.0" ry="6.0" x="816.0" y="785.1061339178927" width="52.0" height="52.0" class=""/>
<rect rx="6.0" ry="6.0" x="32.0" y="841.1061339178927" width="52.0" height="52.0" class=""/>
<rect rx="6.0" ry="6.0" x="88.0" y="841.1061339178927" width="52.0" height="52.0" class=""/>
<text x="114.0" y="891.1061339178927" class="hold">Super</text>
<rect rx="6.0" ry="6.0" x="144.0" y="827.1061339178927" width="52.0" height="52.0" class=""/>
<text x="170.0" y="853.1061339178927" class="tap">_</text>
<text x="170.0" y="877.1061339178927" class="hold">Alt</text>
<rect rx="6.0" ry="6.0" x="200.0" y="820.1061339178927" width="52.0" height="52.0" class=""/>
<text x="226.0" y="846.1061339178927" class="tap">+</text>
<text x="226.0" y="870.1061339178927" class="hold">Shift</text>
<rect rx="6.0" ry="6.0" x="256.0" y="827.1061339178927" width="52.0" height="52.0" class=""/>
<text x="282.0" y="853.1061339178927" class="tap">=</text>
<text x="282.0" y="877.1061339178927" class="hold">Ctrl</text>
<rect rx="6.0" ry="6.0" x="312.0" y="834.1061339178927" width="52.0" height="52.0" class=""/>
<text x="338.0" y="860.1061339178927" class="tap">~</text>
<rect rx="6.0" ry="6.0" x="536.0" y="834.1061339178927" width="52.0" height="52.0" class=""/>
<text x="562.0" y="860.1061339178927" class="tap">[</text>
<rect rx="6.0" ry="6.0" x="592.0" y="827.1061339178927" width="52.0" height="52.0" class=""/>
<text x="618.0" y="853.1061339178927" class="tap">(</text>
<text x="618.0" y="877.1061339178927" class="hold">Ctrl</text>
<rect rx="6.0" ry="6.0" x="648.0" y="820.1061339178927" width="52.0" height="52.0" class=""/>
<text x="674.0" y="846.1061339178927" class="tap">)</text>
<text x="674.0" y="870.1061339178927" class="hold">Shift</text>
<rect rx="6.0" ry="6.0" x="704.0" y="827.1061339178927" width="52.0" height="52.0" class=""/>
<text x="730.0" y="853.1061339178927" class="tap">]</text>
<text x="730.0" y="877.1061339178927" class="hold">Alt</text>
<rect rx="6.0" ry="6.0" x="760.0" y="841.1061339178927" width="52.0" height="52.0" class=""/>
<text x="786.0" y="867.1061339178927" class="tap">`</text>
<text x="786.0" y="891.1061339178927" class="hold">Super</text>
<rect rx="6.0" ry="6.0" x="816.0" y="841.1061339178927" width="52.0" height="52.0" class=""/>
<rect rx="6.0" ry="6.0" x="32.0" y="897.1061339178927" width="52.0" height="52.0" class=""/>
<rect rx="6.0" ry="6.0" x="88.0" y="897.1061339178927" width="52.0" height="52.0" class=""/>
<text x="114.0" y="923.1061339178927" class="tap">Sticky</text>
<rect rx="6.0" ry="6.0" x="144.0" y="883.1061339178927" width="52.0" height="52.0" class=""/>
<rect rx="6.0" ry="6.0" x="200.0" y="876.1061339178927" width="52.0" height="52.0" class=""/>
<rect rx="6.0" ry="6.0" x="256.0" y="883.1061339178927" width="52.0" height="52.0" class=""/>
<rect rx="6.0" ry="6.0" x="312.0" y="890.1061339178927" width="52.0" height="52.0" class=""/>
<rect rx="6.0" ry="6.0" x="536.0" y="890.1061339178927" width="52.0" height="52.0" class=""/>
<text x="562.0" y="916.1061339178927" class="tap">|</text>
<rect rx="6.0" ry="6.0" x="592.0" y="883.1061339178927" width="52.0" height="52.0" class=""/>
<text x="618.0" y="909.1061339178927" class="tap">{</text>
<rect rx="6.0" ry="6.0" x="648.0" y="876.1061339178927" width="52.0" height="52.0" class=""/>
<text x="674.0" y="902.1061339178927" class="tap">}</text>
<rect rx="6.0" ry="6.0" x="704.0" y="883.1061339178927" width="52.0" height="52.0" class=""/>
<text x="730.0" y="909.1061339178927" class="tap">\</text>
<rect rx="6.0" ry="6.0" x="760.0" y="897.1061339178927" width="52.0" height="52.0" class=""/>
<text x="786.0" y="923.1061339178927" class="tap">Sticky</text>
<rect rx="6.0" ry="6.0" x="816.0" y="897.1061339178927" width="52.0" height="52.0" class=""/>
<rect rx="6.0" ry="6.0" x="228.0" y="940.9541339178927" width="52.0" height="52.0" class="ghost"/>
<g transform="rotate(15.0, 315.59999999999997, 975.1861339178928)">
<rect rx="6.0" ry="6.0" x="289.59999999999997" y="949.1861339178928" width="52.0" height="52.0" class="held"/>
</g>
<g transform="rotate(30.0, 381.12, 986.3861339178927)">
<rect rx="6.0" ry="6.0" x="355.12" y="946.3861339178927" width="52.0" height="80.0" class=""/>
</g>
<g transform="rotate(-30.0, 518.88, 986.3861339178927)">
<rect rx="6.0" ry="6.0" x="492.88" y="946.3861339178927" width="52.0" height="80.0" class=""/>
</g>
<g transform="rotate(-15.0, 584.4, 975.1861339178928)">
<rect rx="6.0" ry="6.0" x="558.4" y="949.1861339178928" width="52.0" height="52.0" class=""/>
</g>
<rect rx="6.0" ry="6.0" x="620.0" y="940.9541339178927" width="52.0" height="52.0" class="ghost"/>
<rect rx="6.0" ry="6.0" x="632.0" y="836.6061339178927" width="28.0" height="26.0" class="combo"/>
<text x="646.0" y="849.6061339178927" class="combo">()←</text>
<rect rx="6.0" ry="6.0" x="632.0" y="892.6061339178927" width="28.0" height="26.0" class="combo"/>
<text x="646.0" y="905.6061339178927" class="combo">{}←</text>
<path d="M646.0,824.1061339178927 h-78.0 a6.0,6.0 0 0 0 -6.0,6.0 v11.333333333333332"/>
<path d="M646.0,824.1061339178927 h78.0 a6.0,6.0 0 0 1 6.0,6.0 v4.333333333333332"/>
<rect rx="6.0" ry="6.0" x="632.0" y="811.1061339178927" width="28.0" height="26.0" class="combo"/>
<text x="646.0" y="824.1061339178927" class="combo">[]←</text>
</g>
<g class="layer-Adj">
<text x="30.0" y="1064.7592008768393" class="label">Adj:</text>
<rect rx="6.0" ry="6.0" x="32.0" y="1115.7592008768393" width="52.0" height="52.0" class=""/>
<text x="58.0" y="1141.7592008768393" class="tap">F12</text>
<rect rx="6.0" ry="6.0" x="88.0" y="1115.7592008768393" width="52.0" height="52.0" class=""/>
<text x="114.0" y="1141.7592008768393" class="tap">F1</text>
<rect rx="6.0" ry="6.0" x="144.0" y="1101.7592008768393" width="52.0" height="52.0" class=""/>
<text x="170.0" y="1127.7592008768393" class="tap">F2</text>
<rect rx="6.0" ry="6.0" x="200.0" y="1094.7592008768393" width="52.0" height="52.0" class=""/>
<text x="226.0" y="1120.7592008768393" class="tap">F3</text>
<rect rx="6.0" ry="6.0" x="256.0" y="1101.7592008768393" width="52.0" height="52.0" class=""/>
<text x="282.0" y="1127.7592008768393" class="tap">F4</text>
<rect rx="6.0" ry="6.0" x="312.0" y="1108.7592008768393" width="52.0" height="52.0" class=""/>
<text x="338.0" y="1134.7592008768393" class="tap">F5</text>
<rect rx="6.0" ry="6.0" x="536.0" y="1108.7592008768393" width="52.0" height="52.0" class=""/>
<text x="562.0" y="1134.7592008768393" class="tap">F6</text>
<rect rx="6.0" ry="6.0" x="592.0" y="1101.7592008768393" width="52.0" height="52.0" class=""/>
<text x="618.0" y="1127.7592008768393" class="tap">F7</text>
<rect rx="6.0" ry="6.0" x="648.0" y="1094.7592008768393" width="52.0" height="52.0" class=""/>
<text x="674.0" y="1120.7592008768393" class="tap">F8</text>
<rect rx="6.0" ry="6.0" x="704.0" y="1101.7592008768393" width="52.0" height="52.0" class=""/>
<text x="730.0" y="1127.7592008768393" class="tap">F9</text>
<rect rx="6.0" ry="6.0" x="760.0" y="1115.7592008768393" width="52.0" height="52.0" class=""/>
<text x="786.0" y="1141.7592008768393" class="tap">F10</text>
<rect rx="6.0" ry="6.0" x="816.0" y="1115.7592008768393" width="52.0" height="52.0" class=""/>
<text x="842.0" y="1141.7592008768393" class="tap">F11</text>
<rect rx="6.0" ry="6.0" x="32.0" y="1171.7592008768393" width="52.0" height="52.0" class=""/>
<text x="58.0" y="1197.7592008768393" class="tap">Boot</text>
<rect rx="6.0" ry="6.0" x="88.0" y="1171.7592008768393" width="52.0" height="52.0" class=""/>
<text x="114.0" y="1197.7592008768393" class="tap">PrtSc</text>
<text x="114.0" y="1221.7592008768393" class="hold">Super</text>
<rect rx="6.0" ry="6.0" x="144.0" y="1157.7592008768393" width="52.0" height="52.0" class=""/>
<text x="170.0" y="1183.7592008768393" class="tap">Alt</text>
<rect rx="6.0" ry="6.0" x="200.0" y="1150.7592008768393" width="52.0" height="52.0" class=""/>
<text x="226.0" y="1176.7592008768393" class="tap">Shift</text>
<rect rx="6.0" ry="6.0" x="256.0" y="1157.7592008768393" width="52.0" height="52.0" class=""/>
<text x="282.0" y="1183.7592008768393" class="tap">Ctrl</text>
<rect rx="6.0" ry="6.0" x="312.0" y="1164.7592008768393" width="52.0" height="52.0" class=""/>
<text x="338.0" y="1190.7592008768393" class="tap">
<tspan x="338.0" dy="-0.6em">Toggle</tspan><tspan x="338.0" dy="1.2em">Sentence</tspan></text>
<rect rx="6.0" ry="6.0" x="536.0" y="1164.7592008768393" width="52.0" height="52.0" class=""/>
<text x="562.0" y="1190.7592008768393" class="tap">Vol+</text>
<text x="562.0" y="1166.7592008768393" class="shifted">Bright+</text>
<rect rx="6.0" ry="6.0" x="592.0" y="1157.7592008768393" width="52.0" height="52.0" class=""/>
<text x="618.0" y="1183.7592008768393" class="tap">Mic</text>
<text x="618.0" y="1207.7592008768393" class="hold">Ctrl</text>
<rect rx="6.0" ry="6.0" x="648.0" y="1150.7592008768393" width="52.0" height="52.0" class=""/>
<text x="674.0" y="1176.7592008768393" class="tap">Shift</text>
<rect rx="6.0" ry="6.0" x="704.0" y="1157.7592008768393" width="52.0" height="52.0" class=""/>
<text x="730.0" y="1183.7592008768393" class="tap">Alt</text>
<rect rx="6.0" ry="6.0" x="760.0" y="1171.7592008768393" width="52.0" height="52.0" class=""/>
<text x="786.0" y="1197.7592008768393" class="tap">PrtSc</text>
<text x="786.0" y="1221.7592008768393" class="hold">Super</text>
<rect rx="6.0" ry="6.0" x="816.0" y="1171.7592008768393" width="52.0" height="52.0" class=""/>
<text x="842.0" y="1197.7592008768393" class="tap">Boot</text>
<rect rx="6.0" ry="6.0" x="32.0" y="1227.7592008768393" width="52.0" height="52.0" class=""/>
<rect rx="6.0" ry="6.0" x="88.0" y="1227.7592008768393" width="52.0" height="52.0" class=""/>
<text x="114.0" y="1253.7592008768393" class="tap">Sticky</text>
<rect rx="6.0" ry="6.0" x="144.0" y="1213.7592008768393" width="52.0" height="52.0" class=""/>
<rect rx="6.0" ry="6.0" x="200.0" y="1206.7592008768393" width="52.0" height="52.0" class=""/>
<rect rx="6.0" ry="6.0" x="256.0" y="1213.7592008768393" width="52.0" height="52.0" class=""/>
<text x="282.0" y="1239.7592008768393" class="tap">Game</text>
<rect rx="6.0" ry="6.0" x="312.0" y="1220.7592008768393" width="52.0" height="52.0" class=""/>
<text x="338.0" y="1246.7592008768393" class="tap">Steno</text>
<rect rx="6.0" ry="6.0" x="536.0" y="1220.7592008768393" width="52.0" height="52.0" class=""/>
<text x="562.0" y="1246.7592008768393" class="tap">Vol-</text>
<text x="562.0" y="1222.7592008768393" class="shifted">Bright-</text>
<rect rx="6.0" ry="6.0" x="592.0" y="1213.7592008768393" width="52.0" height="52.0" class=""/>
<text x="618.0" y="1239.7592008768393" class="tap">Mute</text>
<rect rx="6.0" ry="6.0" x="648.0" y="1206.7592008768393" width="52.0" height="52.0" class=""/>
<rect rx="6.0" ry="6.0" x="704.0" y="1213.7592008768393" width="52.0" height="52.0" class=""/>
<rect rx="6.0" ry="6.0" x="760.0" y="1227.7592008768393" width="52.0" height="52.0" class=""/>
<text x="786.0" y="1253.7592008768393" class="tap">Sticky</text>
<rect rx="6.0" ry="6.0" x="816.0" y="1227.7592008768393" width="52.0" height="52.0" class=""/>
<rect rx="6.0" ry="6.0" x="228.0" y="1271.6072008768392" width="52.0" height="52.0" class="ghost"/>
<g transform="rotate(15.0, 315.59999999999997, 1305.8392008768392)">
<rect rx="6.0" ry="6.0" x="289.59999999999997" y="1279.8392008768392" width="52.0" height="52.0" class="held"/>
</g>
<g transform="rotate(30.0, 381.12, 1317.0392008768392)">
<rect rx="6.0" ry="6.0" x="355.12" y="1277.0392008768392" width="52.0" height="80.0" class=""/>
</g>
<g transform="rotate(-30.0, 518.88, 1317.0392008768392)">
<rect rx="6.0" ry="6.0" x="492.88" y="1277.0392008768392" width="52.0" height="80.0" class=""/>
</g>
<g transform="rotate(-15.0, 584.4, 1305.8392008768392)">
<rect rx="6.0" ry="6.0" x="558.4" y="1279.8392008768392" width="52.0" height="52.0" class="held"/>
</g>
<rect rx="6.0" ry="6.0" x="620.0" y="1271.6072008768392" width="52.0" height="52.0" class="ghost"/>
</g>
<g class="layer-Game">
<text x="30.0" y="1395.4122678357858" class="label">Game:</text>
<rect rx="6.0" ry="6.0" x="32.0" y="1446.4122678357858" width="52.0" height="52.0" class=""/>
<text x="58.0" y="1472.4122678357858" class="tap">`</text>
<rect rx="6.0" ry="6.0" x="88.0" y="1446.4122678357858" width="52.0" height="52.0" class=""/>
<text x="114.0" y="1472.4122678357858" class="tap">Tab</text>
<rect rx="6.0" ry="6.0" x="144.0" y="1432.4122678357858" width="52.0" height="52.0" class=""/>
<text x="170.0" y="1458.4122678357858" class="tap">Q</text>
<rect rx="6.0" ry="6.0" x="200.0" y="1425.4122678357858" width="52.0" height="52.0" class=""/>
<text x="226.0" y="1451.4122678357858" class="tap">W</text>
<rect rx="6.0" ry="6.0" x="256.0" y="1432.4122678357858" width="52.0" height="52.0" class=""/>
<text x="282.0" y="1458.4122678357858" class="tap">E</text>
<rect rx="6.0" ry="6.0" x="312.0" y="1439.4122678357858" width="52.0" height="52.0" class=""/>
<text x="338.0" y="1465.4122678357858" class="tap">R</text>
<rect rx="6.0" ry="6.0" x="536.0" y="1439.4122678357858" width="52.0" height="52.0" class=""/>
<text x="562.0" y="1465.4122678357858" class="tap">T</text>
<rect rx="6.0" ry="6.0" x="592.0" y="1432.4122678357858" width="52.0" height="52.0" class=""/>
<text x="618.0" y="1458.4122678357858" class="tap">Y</text>
<rect rx="6.0" ry="6.0" x="648.0" y="1425.4122678357858" width="52.0" height="52.0" class=""/>
<text x="674.0" y="1451.4122678357858" class="tap">U</text>
<rect rx="6.0" ry="6.0" x="704.0" y="1432.4122678357858" width="52.0" height="52.0" class=""/>
<text x="730.0" y="1458.4122678357858" class="tap">I</text>
<rect rx="6.0" ry="6.0" x="760.0" y="1446.4122678357858" width="52.0" height="52.0" class=""/>
<text x="786.0" y="1472.4122678357858" class="tap">O</text>
<rect rx="6.0" ry="6.0" x="816.0" y="1446.4122678357858" width="52.0" height="52.0" class=""/>
<text x="842.0" y="1472.4122678357858" class="tap">P</text>
<rect rx="6.0" ry="6.0" x="32.0" y="1502.4122678357858" width="52.0" height="52.0" class=""/>
<text x="58.0" y="1528.4122678357858" class="tap">Esc</text>
<rect rx="6.0" ry="6.0" x="88.0" y="1502.4122678357858" width="52.0" height="52.0" class=""/>
<text x="114.0" y="1528.4122678357858" class="tap">Shift</text>
<rect rx="6.0" ry="6.0" x="144.0" y="1488.4122678357858" width="52.0" height="52.0" class=""/>
<text x="170.0" y="1514.4122678357858" class="tap">A</text>
<rect rx="6.0" ry="6.0" x="200.0" y="1481.4122678357858" width="52.0" height="52.0" class=""/>
<text x="226.0" y="1507.4122678357858" class="tap">S</text>
<rect rx="6.0" ry="6.0" x="256.0" y="1488.4122678357858" width="52.0" height="52.0" class=""/>
<text x="282.0" y="1514.4122678357858" class="tap">D</text>
<rect rx="6.0" ry="6.0" x="312.0" y="1495.4122678357858" width="52.0" height="52.0" class=""/>
<text x="338.0" y="1521.4122678357858" class="tap">F</text>
<rect rx="6.0" ry="6.0" x="536.0" y="1495.4122678357858" width="52.0" height="52.0" class=""/>
<text x="562.0" y="1521.4122678357858" class="tap">G</text>
<rect rx="6.0" ry="6.0" x="592.0" y="1488.4122678357858" width="52.0" height="52.0" class=""/>
<text x="618.0" y="1514.4122678357858" class="tap">H</text>
<rect rx="6.0" ry="6.0" x="648.0" y="1481.4122678357858" width="52.0" height="52.0" class=""/>
<text x="674.0" y="1507.4122678357858" class="tap">J</text>
<rect rx="6.0" ry="6.0" x="704.0" y="1488.4122678357858" width="52.0" height="52.0" class=""/>
<text x="730.0" y="1514.4122678357858" class="tap">K</text>
<rect rx="6.0" ry="6.0" x="760.0" y="1502.4122678357858" width="52.0" height="52.0" class=""/>
<text x="786.0" y="1528.4122678357858" class="tap">L</text>
<rect rx="6.0" ry="6.0" x="816.0" y="1502.4122678357858" width="52.0" height="52.0" class=""/>
<text x="842.0" y="1528.4122678357858" class="tap">Exit</text>
<rect rx="6.0" ry="6.0" x="32.0" y="1558.4122678357858" width="52.0" height="52.0" class=""/>
<text x="58.0" y="1584.4122678357858" class="tap">Alt</text>
<rect rx="6.0" ry="6.0" x="88.0" y="1558.4122678357858" width="52.0" height="52.0" class=""/>
<text x="114.0" y="1584.4122678357858" class="tap">Ctrl</text>
<rect rx="6.0" ry="6.0" x="144.0" y="1544.4122678357858" width="52.0" height="52.0" class=""/>
<text x="170.0" y="1570.4122678357858" class="tap">Z</text>
<rect rx="6.0" ry="6.0" x="200.0" y="1537.4122678357858" width="52.0" height="52.0" class=""/>
<text x="226.0" y="1563.4122678357858" class="tap">X</text>
<rect rx="6.0" ry="6.0" x="256.0" y="1544.4122678357858" width="52.0" height="52.0" class=""/>
<text x="282.0" y="1570.4122678357858" class="tap">C</text>
<rect rx="6.0" ry="6.0" x="312.0" y="1551.4122678357858" width="52.0" height="52.0" class=""/>
<text x="338.0" y="1577.4122678357858" class="tap">V</text>
<rect rx="6.0" ry="6.0" x="536.0" y="1551.4122678357858" width="52.0" height="52.0" class=""/>
<text x="562.0" y="1577.4122678357858" class="tap">B</text>
<rect rx="6.0" ry="6.0" x="592.0" y="1544.4122678357858" width="52.0" height="52.0" class=""/>
<text x="618.0" y="1570.4122678357858" class="tap">N</text>
<rect rx="6.0" ry="6.0" x="648.0" y="1537.4122678357858" width="52.0" height="52.0" class=""/>
<text x="674.0" y="1563.4122678357858" class="tap">M</text>
<rect rx="6.0" ry="6.0" x="704.0" y="1544.4122678357858" width="52.0" height="52.0" class=""/>
<text x="730.0" y="1570.4122678357858" class="tap">,</text>
<rect rx="6.0" ry="6.0" x="760.0" y="1558.4122678357858" width="52.0" height="52.0" class=""/>
<text x="786.0" y="1584.4122678357858" class="tap">.</text>
<rect rx="6.0" ry="6.0" x="816.0" y="1558.4122678357858" width="52.0" height="52.0" class=""/>
<text x="842.0" y="1584.4122678357858" class="tap">/</text>
<rect rx="6.0" ry="6.0" x="228.0" y="1602.2602678357857" width="52.0" height="52.0" class=""/>
<text x="254.0" y="1628.2602678357857" class="tap">M</text>
<g transform="rotate(15.0, 315.59999999999997, 1636.4922678357857)">
<rect rx="6.0" ry="6.0" x="289.59999999999997" y="1610.4922678357857" width="52.0" height="52.0" class=""/>
<text x="315.59999999999997" y="1636.4922678357857" class="tap">I</text>
</g>
<g transform="rotate(30.0, 381.12, 1647.6922678357857)">
<rect rx="6.0" ry="6.0" x="355.12" y="1607.6922678357857" width="52.0" height="80.0" class=""/>
<text x="381.12" y="1647.6922678357857" class="tap">Spc</text>
</g>
<g transform="rotate(-30.0, 518.88, 1647.6922678357857)">
<rect rx="6.0" ry="6.0" x="492.88" y="1607.6922678357857" width="52.0" height="80.0" class=""/>
<text x="518.88" y="1647.6922678357857" class="tap">Bspc</text>
</g>
<g transform="rotate(-15.0, 584.4, 1636.4922678357857)">
<rect rx="6.0" ry="6.0" x="558.4" y="1610.4922678357857" width="52.0" height="52.0" class=""/>
<text x="584.4" y="1636.4922678357857" class="tap">Enter</text>
</g>
<rect rx="6.0" ry="6.0" x="620.0" y="1602.2602678357857" width="52.0" height="52.0" class=""/>
<text x="646.0" y="1628.2602678357857" class="tap">Del</text>
</g>
</svg>
