<svg width="900" height="1741" viewBox="0 0 900 1741" class="keymap" xmlns="http://www.w3.org/2000/svg" xmlns:xlink="http://www.w3.org/1999/xlink">
<style>/* inherit to force styles through use tags */
svg path {
    fill: inherit;
}

/* font and background color specifications */
svg.keymap {
    font-family: SFMono-Regular,Consolas,Liberation Mono,Menlo,monospace;
    font-size: 14px;
    font-kerning: normal;
    text-rendering: optimizeLegibility;
    fill: #24292e;
}

/* default key styling */
rect.key {
    fill: #f6f8fa;
    stroke: #c9cccf;
    stroke-width: 1;
}

/* default key side styling, only used is draw_key_sides is set */
rect.side {
    filter: brightness(90%);
}

/* color accent for combo boxes */
rect.combo, rect.combo-separate {
    fill: #cdf;
}

/* color accent for held keys */
rect.held, rect.combo.held {
    fill: #fdd;
}

/* color accent for ghost (optional) keys */
rect.ghost, rect.combo.ghost {
    stroke-dasharray: 4, 4;
    stroke-width: 2;
}

text {
    text-anchor: middle;
    dominant-baseline: middle;
}

/* styling for layer labels */
text.label {
    font-weight: bold;
    text-anchor: start;
    stroke: white;
    stroke-width: 2;
    paint-order: stroke;
}

/* styling for combo tap, and key hold/shifted label text */
text.combo, text.hold, text.shifted {
    font-size: 11px;
}

text.hold {
    text-anchor: middle;
    dominant-baseline: auto;
}

text.shifted {
    text-anchor: middle;
    dominant-baseline: hanging;
}

/* styling for hold/shifted label text in combo box */
text.combo.hold, text.combo.shifted {
    font-size: 8px;
}

/* lighter symbol for transparent keys */
text.trans {
    fill: #7b7e81;
}

/* styling for combo dendrons */
path.combo {
    stroke-width: 1;
    stroke: gray;
    fill: none;
}

/* Start Tabler Icons Cleanup */
/* cannot use height/width with glyphs */
.icon-tabler > path {
    fill: inherit;
    stroke: inherit;
    stroke-width: 2;
}
/* hide tabler's default box */
.icon-tabler > path[stroke="none"][fill="none"] {
    visibility: hidden;
}
/* End Tabler Icons Cleanup */
</style>
<g transform="translate(30, 0)" class="layer-Base">
<text x="0" y="28" class="label">Base:</text>
<g transform="translate(0, 88)">
<g transform="translate(28, 49)" class="key keypos-0">
<rect rx="6" ry="6" x="-26" y="-26" width="52" height="52" class="key"/>
<text x="0" y="0" class="key tap">`</text>
<text x="0" y="-24" class="key shifted">~</text>
</g>
<g transform="translate(84, 49)" class="key keypos-1">
<rect rx="6" ry="6" x="-26" y="-26" width="52" height="52" class="key"/>
<text x="0" y="0" class="key tap">Q</text>
</g>
<g transform="translate(140, 35)" class="key keypos-2">
<rect rx="6" ry="6" x="-26" y="-26" width="52" height="52" class="key"/>
<text x="0" y="0" class="key tap">W</text>
</g>
<g transform="translate(196, 28)" class="key keypos-3">
<rect rx="6" ry="6" x="-26" y="-26" width="52" height="52" class="key"/>
<text x="0" y="0" class="key tap">F</text>
</g>
<g transform="translate(252, 35)" class="key keypos-4">
<rect rx="6" ry="6" x="-26" y="-26" width="52" height="52" class="key"/>
<text x="0" y="0" class="key tap">P</text>
</g>
<g transform="translate(308, 42)" class="key keypos-5">
<rect rx="6" ry="6" x="-26" y="-26" width="52" height="52" class="key"/>
<text x="0" y="0" class="key tap">B</text>
</g>
<g transform="translate(532, 42)" class="key keypos-6">
<rect rx="6" ry="6" x="-26" y="-26" width="52" height="52" class="key"/>
<text x="0" y="0" class="key tap">J</text>
</g>
<g transform="translate(588, 35)" class="key keypos-7">
<rect rx="6" ry="6" x="-26" y="-26" width="52" height="52" class="key"/>
<text x="0" y="0" class="key tap">L</text>
</g>
<g transform="translate(644, 28)" class="key keypos-8">
<rect rx="6" ry="6" x="-26" y="-26" width="52" height="52" class="key"/>
<text x="0" y="0" class="key tap">U</text>
</g>
<g transform="translate(700, 35)" class="key keypos-9">
<rect rx="6" ry="6" x="-26" y="-26" width="52" height="52" class="key"/>
<text x="0" y="0" class="key tap">Y</text>
</g>
<g transform="translate(756, 49)" class="key keypos-10">
<rect rx="6" ry="6" x="-26" y="-26" width="52" height="52" class="key"/>
<text x="0" y="0" class="key tap">;</text>
<text x="0" y="-24" class="key shifted">:</text>
</g>
<g transform="translate(812, 49)" class="key keypos-11">
<rect rx="6" ry="6" x="-26" y="-26" width="52" height="52" class="key"/>
<text x="0" y="0" class="key tap">=</text>
<text x="0" y="-24" class="key shifted">+</text>
</g>
<g transform="translate(28, 105)" class="key keypos-12">
<rect rx="6" ry="6" x="-26" y="-26" width="52" height="52" class="key"/>
<text x="0" y="0" class="key tap">Esc</text>
<text x="0" y="24" class="key hold">Ctrl</text>
</g>
<g transform="translate(84, 105)" class="key keypos-13">
<rect rx="6" ry="6" x="-26" y="-26" width="52" height="52" class="key"/>
<text x="0" y="0" class="key tap">A</text>
<text x="0" y="24" class="key hold">Super</text>
</g>
<g transform="translate(140, 91)" class="key keypos-14">
<rect rx="6" ry="6" x="-26" y="-26" width="52" height="52" class="key"/>
<text x="0" y="0" class="key tap">R</text>
<text x="0" y="24" class="key hold">Alt</text>
</g>
<g transform="translate(196, 84)" class="key keypos-15">
<rect rx="6" ry="6" x="-26" y="-26" width="52" height="52" class="key"/>
<text x="0" y="0" class="key tap">S</text>
<text x="0" y="24" class="key hold">Shift</text>
</g>
<g transform="translate(252, 91)" class="key keypos-16">
<rect rx="6" ry="6" x="-26" y="-26" width="52" height="52" class="key"/>
<text x="0" y="0" class="key tap">T</text>
<text x="0" y="24" class="key hold">Ctrl</text>
</g>
<g transform="translate(308, 98)" class="key keypos-17">
<rect rx="6" ry="6" x="-26" y="-26" width="52" height="52" class="key"/>
<text x="0" y="0" class="key tap">G</text>
</g>
<g transform="translate(532, 98)" class="key keypos-18">
<rect rx="6" ry="6" x="-26" y="-26" width="52" height="52" class="key"/>
<text x="0" y="0" class="key tap">M</text>
</g>
<g transform="translate(588, 91)" class="key keypos-19">
<rect rx="6" ry="6" x="-26" y="-26" width="52" height="52" class="key"/>
<text x="0" y="0" class="key tap">N</text>
<text x="0" y="24" class="key hold">Ctrl</text>
</g>
<g transform="translate(644, 84)" class="key keypos-20">
<rect rx="6" ry="6" x="-26" y="-26" width="52" height="52" class="key"/>
<text x="0" y="0" class="key tap">E</text>
<text x="0" y="24" class="key hold">Shift</text>
</g>
<g transform="translate(700, 91)" class="key keypos-21">
<rect rx="6" ry="6" x="-26" y="-26" width="52" height="52" class="key"/>
<text x="0" y="0" class="key tap">I</text>
<text x="0" y="24" class="key hold">Alt</text>
</g>
<g transform="translate(756, 105)" class="key keypos-22">
<rect rx="6" ry="6" x="-26" y="-26" width="52" height="52" class="key"/>
<text x="0" y="0" class="key tap">O</text>
<text x="0" y="24" class="key hold">Super</text>
</g>
<g transform="translate(812, 105)" class="key keypos-23">
<rect rx="6" ry="6" x="-26" y="-26" width="52" height="52" class="key"/>
<text x="0" y="0" class="key tap">&#x27;</text>
<text x="0" y="24" class="key hold">Ctrl</text>
<text x="0" y="-24" class="key shifted">&quot;</text>
</g>
<g transform="translate(28, 161)" class="key keypos-24">
<rect rx="6" ry="6" x="-26" y="-26" width="52" height="52" class="key"/>
<text x="0" y="0" class="key tap">Del</text>
</g>
<g transform="translate(84, 161)" class="key keypos-25">
<rect rx="6" ry="6" x="-26" y="-26" width="52" height="52" class="key"/>
<text x="0" y="0" class="key tap">Z</text>
</g>
<g transform="translate(140, 147)" class="key keypos-26">
<rect rx="6" ry="6" x="-26" y="-26" width="52" height="52" class="key"/>
<text x="0" y="0" class="key tap">X</text>
</g>
<g transform="translate(196, 140)" class="key keypos-27">
<rect rx="6" ry="6" x="-26" y="-26" width="52" height="52" class="key"/>
<text x="0" y="0" class="key tap">C</text>
</g>
<g transform="translate(252, 147)" class="key keypos-28">
<rect rx="6" ry="6" x="-26" y="-26" width="52" height="52" class="key"/>
<text x="0" y="0" class="key tap">D</text>
</g>
<g transform="translate(308, 154)" class="key keypos-29">
<rect rx="6" ry="6" x="-26" y="-26" width="52" height="52" class="key"/>
<text x="0" y="0" class="key tap">V</text>
</g>
<g transform="translate(532, 154)" class="key keypos-30">
<rect rx="6" ry="6" x="-26" y="-26" width="52" height="52" class="key"/>
<text x="0" y="0" class="key tap">K</text>
</g>
<g transform="translate(588, 147)" class="key keypos-31">
<rect rx="6" ry="6" x="-26" y="-26" width="52" height="52" class="key"/>
<text x="0" y="0" class="key tap">H</text>
</g>
<g transform="translate(644, 140)" class="key keypos-32">
<rect rx="6" ry="6" x="-26" y="-26" width="52" height="52" class="key"/>
<text x="0" y="0" class="key tap">,</text>
<text x="0" y="-24" class="key shifted">&lt;</text>
</g>
<g transform="translate(700, 147)" class="key keypos-33">
<rect rx="6" ry="6" x="-26" y="-26" width="52" height="52" class="key"/>
<text x="0" y="0" class="key tap">.</text>
<text x="0" y="-24" class="key shifted">&gt;</text>
</g>
<g transform="translate(756, 161)" class="key keypos-34">
<rect rx="6" ry="6" x="-26" y="-26" width="52" height="52" class="key"/>
<text x="0" y="0" class="key tap">/</text>
<text x="0" y="-24" class="key shifted">?</text>
</g>
<g transform="translate(812, 161)" class="key keypos-35">
<rect rx="6" ry="6" x="-26" y="-26" width="52" height="52" class="key"/>
<text x="0" y="0" class="key tap">Enter</text>
</g>
<g transform="translate(224, 205)" class="key ghost keypos-36">
<rect rx="6" ry="6" x="-26" y="-26" width="52" height="52" class="key ghost"/>
<text x="0" y="0" class="key ghost tap">Leader</text>
</g>
<g transform="translate(286, 213) rotate(15.0)" class="key keypos-37">
<rect rx="6" ry="6" x="-26" y="-26" width="52" height="52" class="key"/>
<text x="0" y="0" class="key tap">Tab</text>
<text x="0" y="24" class="key hold">Lower</text>
</g>
<g transform="translate(351, 224) rotate(30.0)" class="key keypos-38">
<rect rx="6" ry="6" x="-26" y="-40" width="52" height="80" class="key"/>
<text x="0" y="0" class="key tap">Bspc</text>
<text x="0" y="38" class="key hold">Shift</text>
</g>
<g transform="translate(489, 224) rotate(-30.0)" class="key keypos-39">
<rect rx="6" ry="6" x="-26" y="-40" width="52" height="80" class="key"/>
<text x="0" y="0" class="key tap">Spc</text>
<text x="0" y="38" class="key hold">Shift</text>
</g>
<g transform="translate(554, 213) rotate(-15.0)" class="key keypos-40">
<rect rx="6" ry="6" x="-26" y="-26" width="52" height="52" class="key"/>
<text x="0" y="0" class="key tap">-</text>
<text x="0" y="24" class="key hold">Raise</text>
<text x="0" y="-24" class="key shifted">_</text>
</g>
<g transform="translate(616, 205)" class="key ghost keypos-41">
<rect rx="6" ry="6" x="-26" y="-26" width="52" height="52" class="key ghost"/>
<text x="0" y="0" class="key ghost tap">Leader</text>
</g>
<g class="combo combopos-0">
<path d="M168,-32 h-134 a6.0,6.0 0 0 0 -6.0,6.0 v56" class="combo"/>
<path d="M168,-32 h134 a6.0,6.0 0 0 1 6.0,6.0 v49" class="combo"/>
<rect rx="6" ry="6" x="154" y="-45" width="28" height="26" class="combo"/>
<text x="168" y="-32" class="combo tap">Boot</text>
</g>
<g class="combo combopos-1">
<path d="M672,-32 h-134 a6.0,6.0 0 0 0 -6.0,6.0 v49" class="combo"/>
<path d="M672,-32 h134 a6.0,6.0 0 0 1 6.0,6.0 v56" class="combo"/>
<rect rx="6" ry="6" x="658" y="-45" width="28" height="26" class="combo"/>
<text x="672" y="-32" class="combo tap">Boot</text>
</g>
<g class="combo combopos-2">
<path d="M140,-5 h-106 a6.0,6.0 0 0 0 -6.0,6.0 v30" class="combo"/>
<path d="M140,-5 h106 a6.0,6.0 0 0 1 6.0,6.0 v16" class="combo"/>
<rect rx="6" ry="6" x="126" y="-18" width="28" height="26" class="combo"/>
<text x="140" y="-5" class="combo tap">Compile</text>
</g>
<g class="combo combopos-3">
<path d="M700,-5 h-106 a6.0,6.0 0 0 0 -6.0,6.0 v16" class="combo"/>
<path d="M700,-5 h106 a6.0,6.0 0 0 1 6.0,6.0 v30" class="combo"/>
<rect rx="6" ry="6" x="686" y="-18" width="28" height="26" class="combo"/>
<text x="700" y="-5" class="combo tap">Compile</text>
</g>
<g class="combo combopos-4">
<path d="M420,98 l-93,0" class="combo"/>
<path d="M420,98 l93,0" class="combo"/>
<rect rx="6" ry="6" x="406" y="85" width="28" height="26" class="combo"/>
<text x="420" y="98" class="combo tap">
<tspan x="420" dy="-0.6em">Cap</tspan><tspan x="420" dy="1.2em">word</tspan>
</text>
</g>
<g class="combo combopos-5">
<rect rx="6" ry="6" x="154" y="130" width="28" height="26" class="combo"/>
<text x="168" y="144" class="combo tap">Copy</text>
</g>
<g class="combo combopos-6">
<rect rx="6" ry="6" x="210" y="130" width="28" height="26" class="combo"/>
<text x="224" y="144" class="combo tap">Paste</text>
</g>
<g class="combo combopos-7">
<path d="M190,267 h-156 a6.0,6.0 0 0 1 -6.0,-6.0 v-82" class="combo"/>
<path d="M190,267 h156 a6.0,6.0 0 0 0 6.0,-6.0 v-9" class="combo"/>
<rect rx="6" ry="6" x="176" y="254" width="28" height="26" class="combo"/>
<text x="190" y="267" class="combo tap">Bspc</text>
</g>
<g class="combo combopos-8">
<path d="M650,267 h156 a6.0,6.0 0 0 0 6.0,-6.0 v-82" class="combo"/>
<path d="M650,267 h-156 a6.0,6.0 0 0 1 -6.0,-6.0 v-9" class="combo"/>
<rect rx="6" ry="6" x="636" y="254" width="28" height="26" class="combo"/>
<text x="650" y="267" class="combo tap">Spc</text>
</g>
</g>
</g>
<g transform="translate(30, 362)" class="layer-Raise">
<text x="0" y="28" class="label">Raise:</text>
<g transform="translate(0, 56)">
<g transform="translate(28, 49)" class="key keypos-0">
<rect rx="6" ry="6" x="-26" y="-26" width="52" height="52" class="key"/>
</g>
<g transform="translate(84, 49)" class="key keypos-1">
<rect rx="6" ry="6" x="-26" y="-26" width="52" height="52" class="key"/>
<text x="0" y="0" class="key tap">1</text>
</g>
<g transform="translate(140, 35)" class="key keypos-2">
<rect rx="6" ry="6" x="-26" y="-26" width="52" height="52" class="key"/>
<text x="0" y="0" class="key tap">2</text>
</g>
<g transform="translate(196, 28)" class="key keypos-3">
<rect rx="6" ry="6" x="-26" y="-26" width="52" height="52" class="key"/>
<text x="0" y="0" class="key tap">3</text>
</g>
<g transform="translate(252, 35)" class="key keypos-4">
<rect rx="6" ry="6" x="-26" y="-26" width="52" height="52" class="key"/>
<text x="0" y="0" class="key tap">4</text>
</g>
<g transform="translate(308, 42)" class="key keypos-5">
<rect rx="6" ry="6" x="-26" y="-26" width="52" height="52" class="key"/>
<text x="0" y="0" class="key tap">5</text>
</g>
<g transform="translate(532, 42)" class="key keypos-6">
<rect rx="6" ry="6" x="-26" y="-26" width="52" height="52" class="key"/>
<text x="0" y="0" class="key tap">6</text>
</g>
<g transform="translate(588, 35)" class="key keypos-7">
<rect rx="6" ry="6" x="-26" y="-26" width="52" height="52" class="key"/>
<text x="0" y="0" class="key tap">7</text>
</g>
<g transform="translate(644, 28)" class="key keypos-8">
<rect rx="6" ry="6" x="-26" y="-26" width="52" height="52" class="key"/>
<text x="0" y="0" class="key tap">8</text>
</g>
<g transform="translate(700, 35)" class="key keypos-9">
<rect rx="6" ry="6" x="-26" y="-26" width="52" height="52" class="key"/>
<text x="0" y="0" class="key tap">9</text>
</g>
<g transform="translate(756, 49)" class="key keypos-10">
<rect rx="6" ry="6" x="-26" y="-26" width="52" height="52" class="key"/>
<text x="0" y="0" class="key tap">0</text>
</g>
<g transform="translate(812, 49)" class="key keypos-11">
<rect rx="6" ry="6" x="-26" y="-26" width="52" height="52" class="key"/>
</g>
<g transform="translate(28, 105)" class="key keypos-12">
<rect rx="6" ry="6" x="-26" y="-26" width="52" height="52" class="key"/>
</g>
<g transform="translate(84, 105)" class="key keypos-13">
<rect rx="6" ry="6" x="-26" y="-26" width="52" height="52" class="key"/>
<text x="0" y="0" class="key tap">Super</text>
</g>
<g transform="translate(140, 91)" class="key keypos-14">
<rect rx="6" ry="6" x="-26" y="-26" width="52" height="52" class="key"/>
<text x="0" y="0" class="key tap">Alt</text>
</g>
<g transform="translate(196, 84)" class="key keypos-15">
<rect rx="6" ry="6" x="-26" y="-26" width="52" height="52" class="key"/>
<text x="0" y="0" class="key tap">Shift</text>
</g>
<g transform="translate(252, 91)" class="key keypos-16">
<rect rx="6" ry="6" x="-26" y="-26" width="52" height="52" class="key"/>
<text x="0" y="0" class="key tap">Ctrl</text>
</g>
<g transform="translate(308, 98)" class="key keypos-17">
<rect rx="6" ry="6" x="-26" y="-26" width="52" height="52" class="key"/>
</g>
<g transform="translate(532, 98)" class="key keypos-18">
<rect rx="6" ry="6" x="-26" y="-26" width="52" height="52" class="key"/>
<text x="0" y="0" class="key tap">←</text>
</g>
<g transform="translate(588, 91)" class="key keypos-19">
<rect rx="6" ry="6" x="-26" y="-26" width="52" height="52" class="key"/>
<text x="0" y="0" class="key tap">↓</text>
</g>
<g transform="translate(644, 84)" class="key keypos-20">
<rect rx="6" ry="6" x="-26" y="-26" width="52" height="52" class="key"/>
<text x="0" y="0" class="key tap">↑</text>
</g>
<g transform="translate(700, 91)" class="key keypos-21">
<rect rx="6" ry="6" x="-26" y="-26" width="52" height="52" class="key"/>
<text x="0" y="0" class="key tap">→</text>
</g>
<g transform="translate(756, 105)" class="key keypos-22">
<rect rx="6" ry="6" x="-26" y="-26" width="52" height="52" class="key"/>
</g>
<g transform="translate(812, 105)" class="key keypos-23">
<rect rx="6" ry="6" x="-26" y="-26" width="52" height="52" class="key"/>
</g>
<g transform="translate(28, 161)" class="key keypos-24">
<rect rx="6" ry="6" x="-26" y="-26" width="52" height="52" class="key"/>
</g>
<g transform="translate(84, 161)" class="key keypos-25">
<rect rx="6" ry="6" x="-26" y="-26" width="52" height="52" class="key"/>
<text x="0" y="0" class="key tap">Sticky</text>
</g>
<g transform="translate(140, 147)" class="key keypos-26">
<rect rx="6" ry="6" x="-26" y="-26" width="52" height="52" class="key"/>
</g>
<g transform="translate(196, 140)" class="key keypos-27">
<rect rx="6" ry="6" x="-26" y="-26" width="52" height="52" class="key"/>
</g>
<g transform="translate(252, 147)" class="key keypos-28">
<rect rx="6" ry="6" x="-26" y="-26" width="52" height="52" class="key"/>
</g>
<g transform="translate(308, 154)" class="key keypos-29">
<rect rx="6" ry="6" x="-26" y="-26" width="52" height="52" class="key"/>
</g>
<g transform="translate(532, 154)" class="key keypos-30">
<rect rx="6" ry="6" x="-26" y="-26" width="52" height="52" class="key"/>
<text x="0" y="0" class="key tap">⏭</text>
</g>
<g transform="translate(588, 147)" class="key keypos-31">
<rect rx="6" ry="6" x="-26" y="-26" width="52" height="52" class="key"/>
<text x="0" y="0" class="key tap">⏯</text>
</g>
<g transform="translate(644, 140)" class="key keypos-32">
<rect rx="6" ry="6" x="-26" y="-26" width="52" height="52" class="key"/>
</g>
<g transform="translate(700, 147)" class="key keypos-33">
<rect rx="6" ry="6" x="-26" y="-26" width="52" height="52" class="key"/>
</g>
<g transform="translate(756, 161)" class="key keypos-34">
<rect rx="6" ry="6" x="-26" y="-26" width="52" height="52" class="key"/>
<text x="0" y="0" class="key tap">Sticky</text>
</g>
<g transform="translate(812, 161)" class="key keypos-35">
<rect rx="6" ry="6" x="-26" y="-26" width="52" height="52" class="key"/>
</g>
<g transform="translate(224, 205)" class="key ghost keypos-36">
<rect rx="6" ry="6" x="-26" y="-26" width="52" height="52" class="key ghost"/>
</g>
<g transform="translate(286, 213) rotate(15.0)" class="key keypos-37">
<rect rx="6" ry="6" x="-26" y="-26" width="52" height="52" class="key"/>
</g>
<g transform="translate(351, 224) rotate(30.0)" class="key keypos-38">
<rect rx="6" ry="6" x="-26" y="-40" width="52" height="80" class="key"/>
</g>
<g transform="translate(489, 224) rotate(-30.0)" class="key keypos-39">
<rect rx="6" ry="6" x="-26" y="-40" width="52" height="80" class="key"/>
</g>
<g transform="translate(554, 213) rotate(-15.0)" class="key held keypos-40">
<rect rx="6" ry="6" x="-26" y="-26" width="52" height="52" class="key held"/>
</g>
<g transform="translate(616, 205)" class="key ghost keypos-41">
<rect rx="6" ry="6" x="-26" y="-26" width="52" height="52" class="key ghost"/>
</g>
<g class="combo combopos-0">
<rect rx="6" ry="6" x="546" y="138" width="28" height="26" class="combo"/>
<text x="560" y="150" class="combo tap">⏮</text>
</g>
</g>
</g>
<g transform="translate(30, 693)" class="layer-Lower">
<text x="0" y="28" class="label">Lower:</text>
<g transform="translate(0, 56)">
<g transform="translate(28, 49)" class="key keypos-0">
<rect rx="6" ry="6" x="-26" y="-26" width="52" height="52" class="key"/>
</g>
<g transform="translate(84, 49)" class="key keypos-1">
<rect rx="6" ry="6" x="-26" y="-26" width="52" height="52" class="key"/>
<text x="0" y="0" class="key tap">!</text>
</g>
<g transform="translate(140, 35)" class="key keypos-2">
<rect rx="6" ry="6" x="-26" y="-26" width="52" height="52" class="key"/>
<text x="0" y="0" class="key tap">@</text>
</g>
<g transform="translate(196, 28)" class="key keypos-3">
<rect rx="6" ry="6" x="-26" y="-26" width="52" height="52" class="key"/>
<text x="0" y="0" class="key tap">#</text>
</g>
<g transform="translate(252, 35)" class="key keypos-4">
<rect rx="6" ry="6" x="-26" y="-26" width="52" height="52" class="key"/>
<text x="0" y="0" class="key tap">$</text>
</g>
<g transform="translate(308, 42)" class="key keypos-5">
<rect rx="6" ry="6" x="-26" y="-26" width="52" height="52" class="key"/>
<text x="0" y="0" class="key tap">%</text>
</g>
<g transform="translate(532, 42)" class="key keypos-6">
<rect rx="6" ry="6" x="-26" y="-26" width="52" height="52" class="key"/>
<text x="0" y="0" class="key tap">^</text>
</g>
<g transform="translate(588, 35)" class="key keypos-7">
<rect rx="6" ry="6" x="-26" y="-26" width="52" height="52" class="key"/>
<text x="0" y="0" class="key tap">&amp;</text>
</g>
<g transform="translate(644, 28)" class="key keypos-8">
<rect rx="6" ry="6" x="-26" y="-26" width="52" height="52" class="key"/>
<text x="0" y="0" class="key tap">*</text>
</g>
<g transform="translate(700, 35)" class="key keypos-9">
<rect rx="6" ry="6" x="-26" y="-26" width="52" height="52" class="key"/>
</g>
<g transform="translate(756, 49)" class="key keypos-10">
<rect rx="6" ry="6" x="-26" y="-26" width="52" height="52" class="key"/>
<text x="0" y="0" class="key tap">:</text>
</g>
<g transform="translate(812, 49)" class="key keypos-11">
<rect rx="6" ry="6" x="-26" y="-26" width="52" height="52" class="key"/>
</g>
<g transform="translate(28, 105)" class="key keypos-12">
<rect rx="6" ry="6" x="-26" y="-26" width="52" height="52" class="key"/>
</g>
<g transform="translate(84, 105)" class="key keypos-13">
<rect rx="6" ry="6" x="-26" y="-26" width="52" height="52" class="key"/>
<text x="0" y="24" class="key hold">Super</text>
</g>
<g transform="translate(140, 91)" class="key keypos-14">
<rect rx="6" ry="6" x="-26" y="-26" width="52" height="52" class="key"/>
<text x="0" y="0" class="key tap">_</text>
<text x="0" y="24" class="key hold">Alt</text>
</g>
<g transform="translate(196, 84)" class="key keypos-15">
<rect rx="6" ry="6" x="-26" y="-26" width="52" height="52" class="key"/>
<text x="0" y="0" class="key tap">+</text>
<text x="0" y="24" class="key hold">Shift</text>
</g>
<g transform="translate(252, 91)" class="key keypos-16">
<rect rx="6" ry="6" x="-26" y="-26" width="52" height="52" class="key"/>
<text x="0" y="0" class="key tap">=</text>
<text x="0" y="24" class="key hold">Ctrl</text>
</g>
<g transform="translate(308, 98)" class="key keypos-17">
<rect rx="6" ry="6" x="-26" y="-26" width="52" height="52" class="key"/>
<text x="0" y="0" class="key tap">~</text>
</g>
<g transform="translate(532, 98)" class="key keypos-18">
<rect rx="6" ry="6" x="-26" y="-26" width="52" height="52" class="key"/>
<text x="0" y="0" class="key tap">[</text>
</g>
<g transform="translate(588, 91)" class="key keypos-19">
<rect rx="6" ry="6" x="-26" y="-26" width="52" height="52" class="key"/>
<text x="0" y="0" class="key tap">(</text>
<text x="0" y="24" class="key hold">Ctrl</text>
</g>
<g transform="translate(644, 84)" class="key keypos-20">
<rect rx="6" ry="6" x="-26" y="-26" width="52" height="52" class="key"/>
<text x="0" y="0" class="key tap">)</text>
<text x="0" y="24" class="key hold">Shift</text>
</g>
<g transform="translate(700, 91)" class="key keypos-21">
<rect rx="6" ry="6" x="-26" y="-26" width="52" height="52" class="key"/>
<text x="0" y="0" class="key tap">]</text>
<text x="0" y="24" class="key hold">Alt</text>
</g>
<g transform="translate(756, 105)" class="key keypos-22">
<rect rx="6" ry="6" x="-26" y="-26" width="52" height="52" class="key"/>
<text x="0" y="0" class="key tap">`</text>
<text x="0" y="24" class="key hold">Super</text>
</g>
<g transform="translate(812, 105)" class="key keypos-23">
<rect rx="6" ry="6" x="-26" y="-26" width="52" height="52" class="key"/>
</g>
<g transform="translate(28, 161)" class="key keypos-24">
<rect rx="6" ry="6" x="-26" y="-26" width="52" height="52" class="key"/>
</g>
<g transform="translate(84, 161)" class="key keypos-25">
<rect rx="6" ry="6" x="-26" y="-26" width="52" height="52" class="key"/>
<text x="0" y="0" class="key tap">Sticky</text>
</g>
<g transform="translate(140, 147)" class="key keypos-26">
<rect rx="6" ry="6" x="-26" y="-26" width="52" height="52" class="key"/>
</g>
<g transform="translate(196, 140)" class="key keypos-27">
<rect rx="6" ry="6" x="-26" y="-26" width="52" height="52" class="key"/>
</g>
<g transform="translate(252, 147)" class="key keypos-28">
<rect rx="6" ry="6" x="-26" y="-26" width="52" height="52" class="key"/>
</g>
<g transform="translate(308, 154)" class="key keypos-29">
<rect rx="6" ry="6" x="-26" y="-26" width="52" height="52" class="key"/>
</g>
<g transform="translate(532, 154)" class="key keypos-30">
<rect rx="6" ry="6" x="-26" y="-26" width="52" height="52" class="key"/>
<text x="0" y="0" class="key tap">|</text>
</g>
<g transform="translate(588, 147)" class="key keypos-31">
<rect rx="6" ry="6" x="-26" y="-26" width="52" height="52" class="key"/>
<text x="0" y="0" class="key tap">{</text>
</g>
<g transform="translate(644, 140)" class="key keypos-32">
<rect rx="6" ry="6" x="-26" y="-26" width="52" height="52" class="key"/>
<text x="0" y="0" class="key tap">}</text>
</g>
<g transform="translate(700, 147)" class="key keypos-33">
<rect rx="6" ry="6" x="-26" y="-26" width="52" height="52" class="key"/>
<text x="0" y="0" class="key tap">\</text>
</g>
<g transform="translate(756, 161)" class="key keypos-34">
<rect rx="6" ry="6" x="-26" y="-26" width="52" height="52" class="key"/>
<text x="0" y="0" class="key tap">Sticky</text>
</g>
<g transform="translate(812, 161)" class="key keypos-35">
<rect rx="6" ry="6" x="-26" y="-26" width="52" height="52" class="key"/>
</g>
<g transform="translate(224, 205)" class="key ghost keypos-36">
<rect rx="6" ry="6" x="-26" y="-26" width="52" height="52" class="key ghost"/>
</g>
<g transform="translate(286, 213) rotate(15.0)" class="key held keypos-37">
<rect rx="6" ry="6" x="-26" y="-26" width="52" height="52" class="key held"/>
</g>
<g transform="translate(351, 224) rotate(30.0)" class="key keypos-38">
<rect rx="6" ry="6" x="-26" y="-40" width="52" height="80" class="key"/>
</g>
<g transform="translate(489, 224) rotate(-30.0)" class="key keypos-39">
<rect rx="6" ry="6" x="-26" y="-40" width="52" height="80" class="key"/>
</g>
<g transform="translate(554, 213) rotate(-15.0)" class="key keypos-40">
<rect rx="6" ry="6" x="-26" y="-26" width="52" height="52" class="key"/>
</g>
<g transform="translate(616, 205)" class="key ghost keypos-41">
<rect rx="6" ry="6" x="-26" y="-26" width="52" height="52" class="key ghost"/>
</g>
<g class="combo combopos-0">
<rect rx="6" ry="6" x="602" y="74" width="28" height="26" class="combo"/>
<text x="616" y="88" class="combo tap">()←</text>
</g>
<g class="combo combopos-1">
<rect rx="6" ry="6" x="602" y="130" width="28" height="26" class="combo"/>
<text x="616" y="144" class="combo tap">{}←</text>
</g>
<g class="combo combopos-2">
<path d="M616,62 h-78 a6.0,6.0 0 0 0 -6.0,6.0 v11" class="combo"/>
<path d="M616,62 h78 a6.0,6.0 0 0 1 6.0,6.0 v4" class="combo"/>
<rect rx="6" ry="6" x="602" y="49" width="28" height="26" class="combo"/>
<text x="616" y="62" class="combo tap">[]←</text>
</g>
</g>
</g>
<g transform="translate(30, 1024)" class="layer-Adj">
<text x="0" y="28" class="label">Adj:</text>
<g transform="translate(0, 56)">
<g transform="translate(28, 49)" class="key keypos-0">
<rect rx="6" ry="6" x="-26" y="-26" width="52" height="52" class="key"/>
<text x="0" y="0" class="key tap">F12</text>
</g>
<g transform="translate(84, 49)" class="key keypos-1">
<rect rx="6" ry="6" x="-26" y="-26" width="52" height="52" class="key"/>
<text x="0" y="0" class="key tap">F1</text>
</g>
<g transform="translate(140, 35)" class="key keypos-2">
<rect rx="6" ry="6" x="-26" y="-26" width="52" height="52" class="key"/>
<text x="0" y="0" class="key tap">F2</text>
</g>
<g transform="translate(196, 28)" class="key keypos-3">
<rect rx="6" ry="6" x="-26" y="-26" width="52" height="52" class="key"/>
<text x="0" y="0" class="key tap">F3</text>
</g>
<g transform="translate(252, 35)" class="key keypos-4">
<rect rx="6" ry="6" x="-26" y="-26" width="52" height="52" class="key"/>
<text x="0" y="0" class="key tap">F4</text>
</g>
<g transform="translate(308, 42)" class="key keypos-5">
<rect rx="6" ry="6" x="-26" y="-26" width="52" height="52" class="key"/>
<text x="0" y="0" class="key tap">F5</text>
</g>
<g transform="translate(532, 42)" class="key keypos-6">
<rect rx="6" ry="6" x="-26" y="-26" width="52" height="52" class="key"/>
<text x="0" y="0" class="key tap">F6</text>
</g>
<g transform="translate(588, 35)" class="key keypos-7">
<rect rx="6" ry="6" x="-26" y="-26" width="52" height="52" class="key"/>
<text x="0" y="0" class="key tap">F7</text>
</g>
<g transform="translate(644, 28)" class="key keypos-8">
<rect rx="6" ry="6" x="-26" y="-26" width="52" height="52" class="key"/>
<text x="0" y="0" class="key tap">F8</text>
</g>
<g transform="translate(700, 35)" class="key keypos-9">
<rect rx="6" ry="6" x="-26" y="-26" width="52" height="52" class="key"/>
<text x="0" y="0" class="key tap">F9</text>
</g>
<g transform="translate(756, 49)" class="key keypos-10">
<rect rx="6" ry="6" x="-26" y="-26" width="52" height="52" class="key"/>
<text x="0" y="0" class="key tap">F10</text>
</g>
<g transform="translate(812, 49)" class="key keypos-11">
<rect rx="6" ry="6" x="-26" y="-26" width="52" height="52" class="key"/>
<text x="0" y="0" class="key tap">F11</text>
</g>
<g transform="translate(28, 105)" class="key keypos-12">
<rect rx="6" ry="6" x="-26" y="-26" width="52" height="52" class="key"/>
<text x="0" y="0" class="key tap">Boot</text>
</g>
<g transform="translate(84, 105)" class="key keypos-13">
<rect rx="6" ry="6" x="-26" y="-26" width="52" height="52" class="key"/>
<text x="0" y="0" class="key tap">PrtSc</text>
<text x="0" y="24" class="key hold">Super</text>
</g>
<g transform="translate(140, 91)" class="key keypos-14">
<rect rx="6" ry="6" x="-26" y="-26" width="52" height="52" class="key"/>
<text x="0" y="0" class="key tap">Alt</text>
</g>
<g transform="translate(196, 84)" class="key keypos-15">
<rect rx="6" ry="6" x="-26" y="-26" width="52" height="52" class="key"/>
<text x="0" y="0" class="key tap">Shift</text>
</g>
<g transform="translate(252, 91)" class="key keypos-16">
<rect rx="6" ry="6" x="-26" y="-26" width="52" height="52" class="key"/>
<text x="0" y="0" class="key tap">Ctrl</text>
</g>
<g transform="translate(308, 98)" class="key keypos-17">
<rect rx="6" ry="6" x="-26" y="-26" width="52" height="52" class="key"/>
<text x="0" y="0" class="key tap">
<tspan x="0" dy="-0.6em" style="font-size: 88%">Toggle</tspan><tspan x="0" dy="1.2em" style="font-size: 88%">Sentence</tspan>
</text>
</g>
<g transform="translate(532, 98)" class="key keypos-18">
<rect rx="6" ry="6" x="-26" y="-26" width="52" height="52" class="key"/>
<text x="0" y="0" class="key tap">Vol+</text>
<text x="0" y="-24" class="key shifted">Bright+</text>
</g>
<g transform="translate(588, 91)" class="key keypos-19">
<rect rx="6" ry="6" x="-26" y="-26" width="52" height="52" class="key"/>
<text x="0" y="0" class="key tap">Mic</text>
<text x="0" y="24" class="key hold">Ctrl</text>
</g>
<g transform="translate(644, 84)" class="key keypos-20">
<rect rx="6" ry="6" x="-26" y="-26" width="52" height="52" class="key"/>
<text x="0" y="0" class="key tap">Shift</text>
</g>
<g transform="translate(700, 91)" class="key keypos-21">
<rect rx="6" ry="6" x="-26" y="-26" width="52" height="52" class="key"/>
<text x="0" y="0" class="key tap">Alt</text>
</g>
<g transform="translate(756, 105)" class="key keypos-22">
<rect rx="6" ry="6" x="-26" y="-26" width="52" height="52" class="key"/>
<text x="0" y="0" class="key tap">PrtSc</text>
<text x="0" y="24" class="key hold">Super</text>
</g>
<g transform="translate(812, 105)" class="key keypos-23">
<rect rx="6" ry="6" x="-26" y="-26" width="52" height="52" class="key"/>
<text x="0" y="0" class="key tap">Boot</text>
</g>
<g transform="translate(28, 161)" class="key keypos-24">
<rect rx="6" ry="6" x="-26" y="-26" width="52" height="52" class="key"/>
</g>
<g transform="translate(84, 161)" class="key keypos-25">
<rect rx="6" ry="6" x="-26" y="-26" width="52" height="52" class="key"/>
<text x="0" y="0" class="key tap">Sticky</text>
</g>
<g transform="translate(140, 147)" class="key keypos-26">
<rect rx="6" ry="6" x="-26" y="-26" width="52" height="52" class="key"/>
</g>
<g transform="translate(196, 140)" class="key keypos-27">
<rect rx="6" ry="6" x="-26" y="-26" width="52" height="52" class="key"/>
</g>
<g transform="translate(252, 147)" class="key keypos-28">
<rect rx="6" ry="6" x="-26" y="-26" width="52" height="52" class="key"/>
<text x="0" y="0" class="key tap">Game</text>
</g>
<g transform="translate(308, 154)" class="key keypos-29">
<rect rx="6" ry="6" x="-26" y="-26" width="52" height="52" class="key"/>
<text x="0" y="0" class="key tap">Steno</text>
</g>
<g transform="translate(532, 154)" class="key keypos-30">
<rect rx="6" ry="6" x="-26" y="-26" width="52" height="52" class="key"/>
<text x="0" y="0" class="key tap">Vol-</text>
<text x="0" y="-24" class="key shifted">Bright-</text>
</g>
<g transform="translate(588, 147)" class="key keypos-31">
<rect rx="6" ry="6" x="-26" y="-26" width="52" height="52" class="key"/>
<text x="0" y="0" class="key tap">Mute</text>
</g>
<g transform="translate(644, 140)" class="key keypos-32">
<rect rx="6" ry="6" x="-26" y="-26" width="52" height="52" class="key"/>
</g>
<g transform="translate(700, 147)" class="key keypos-33">
<rect rx="6" ry="6" x="-26" y="-26" width="52" height="52" class="key"/>
</g>
<g transform="translate(756, 161)" class="key keypos-34">
<rect rx="6" ry="6" x="-26" y="-26" width="52" height="52" class="key"/>
<text x="0" y="0" class="key tap">Sticky</text>
</g>
<g transform="translate(812, 161)" class="key keypos-35">
<rect rx="6" ry="6" x="-26" y="-26" width="52" height="52" class="key"/>
</g>
<g transform="translate(224, 205)" class="key ghost keypos-36">
<rect rx="6" ry="6" x="-26" y="-26" width="52" height="52" class="key ghost"/>
</g>
<g transform="translate(286, 213) rotate(15.0)" class="key held keypos-37">
<rect rx="6" ry="6" x="-26" y="-26" width="52" height="52" class="key held"/>
</g>
<g transform="translate(351, 224) rotate(30.0)" class="key keypos-38">
<rect rx="6" ry="6" x="-26" y="-40" width="52" height="80" class="key"/>
</g>
<g transform="translate(489, 224) rotate(-30.0)" class="key keypos-39">
<rect rx="6" ry="6" x="-26" y="-40" width="52" height="80" class="key"/>
</g>
<g transform="translate(554, 213) rotate(-15.0)" class="key held keypos-40">
<rect rx="6" ry="6" x="-26" y="-26" width="52" height="52" class="key held"/>
</g>
<g transform="translate(616, 205)" class="key ghost keypos-41">
<rect rx="6" ry="6" x="-26" y="-26" width="52" height="52" class="key ghost"/>
</g>
</g>
</g>
<g transform="translate(30, 1354)" class="layer-Game">
<text x="0" y="28" class="label">Game:</text>
<g transform="translate(0, 56)">
<g transform="translate(28, 49)" class="key keypos-0">
<rect rx="6" ry="6" x="-26" y="-26" width="52" height="52" class="key"/>
<text x="0" y="0" class="key tap">`</text>
</g>
<g transform="translate(84, 49)" class="key keypos-1">
<rect rx="6" ry="6" x="-26" y="-26" width="52" height="52" class="key"/>
<text x="0" y="0" class="key tap">Tab</text>
</g>
<g transform="translate(140, 35)" class="key keypos-2">
<rect rx="6" ry="6" x="-26" y="-26" width="52" height="52" class="key"/>
<text x="0" y="0" class="key tap">Q</text>
</g>
<g transform="translate(196, 28)" class="key keypos-3">
<rect rx="6" ry="6" x="-26" y="-26" width="52" height="52" class="key"/>
<text x="0" y="0" class="key tap">W</text>
</g>
<g transform="translate(252, 35)" class="key keypos-4">
<rect rx="6" ry="6" x="-26" y="-26" width="52" height="52" class="key"/>
<text x="0" y="0" class="key tap">E</text>
</g>
<g transform="translate(308, 42)" class="key keypos-5">
<rect rx="6" ry="6" x="-26" y="-26" width="52" height="52" class="key"/>
<text x="0" y="0" class="key tap">R</text>
</g>
<g transform="translate(532, 42)" class="key keypos-6">
<rect rx="6" ry="6" x="-26" y="-26" width="52" height="52" class="key"/>
<text x="0" y="0" class="key tap">T</text>
</g>
<g transform="translate(588, 35)" class="key keypos-7">
<rect rx="6" ry="6" x="-26" y="-26" width="52" height="52" class="key"/>
<text x="0" y="0" class="key tap">Y</text>
</g>
<g transform="translate(644, 28)" class="key keypos-8">
<rect rx="6" ry="6" x="-26" y="-26" width="52" height="52" class="key"/>
<text x="0" y="0" class="key tap">U</text>
</g>
<g transform="translate(700, 35)" class="key keypos-9">
<rect rx="6" ry="6" x="-26" y="-26" width="52" height="52" class="key"/>
<text x="0" y="0" class="key tap">I</text>
</g>
<g transform="translate(756, 49)" class="key keypos-10">
<rect rx="6" ry="6" x="-26" y="-26" width="52" height="52" class="key"/>
<text x="0" y="0" class="key tap">O</text>
</g>
<g transform="translate(812, 49)" class="key keypos-11">
<rect rx="6" ry="6" x="-26" y="-26" width="52" height="52" class="key"/>
<text x="0" y="0" class="key tap">P</text>
</g>
<g transform="translate(28, 105)" class="key keypos-12">
<rect rx="6" ry="6" x="-26" y="-26" width="52" height="52" class="key"/>
<text x="0" y="0" class="key tap">Esc</text>
</g>
<g transform="translate(84, 105)" class="key keypos-13">
<rect rx="6" ry="6" x="-26" y="-26" width="52" height="52" class="key"/>
<text x="0" y="0" class="key tap">Shift</text>
</g>
<g transform="translate(140, 91)" class="key keypos-14">
<rect rx="6" ry="6" x="-26" y="-26" width="52" height="52" class="key"/>
<text x="0" y="0" class="key tap">A</text>
</g>
<g transform="translate(196, 84)" class="key keypos-15">
<rect rx="6" ry="6" x="-26" y="-26" width="52" height="52" class="key"/>
<text x="0" y="0" class="key tap">S</text>
</g>
<g transform="translate(252, 91)" class="key keypos-16">
<rect rx="6" ry="6" x="-26" y="-26" width="52" height="52" class="key"/>
<text x="0" y="0" class="key tap">D</text>
</g>
<g transform="translate(308, 98)" class="key keypos-17">
<rect rx="6" ry="6" x="-26" y="-26" width="52" height="52" class="key"/>
<text x="0" y="0" class="key tap">F</text>
</g>
<g transform="translate(532, 98)" class="key keypos-18">
<rect rx="6" ry="6" x="-26" y="-26" width="52" height="52" class="key"/>
<text x="0" y="0" class="key tap">G</text>
</g>
<g transform="translate(588, 91)" class="key keypos-19">
<rect rx="6" ry="6" x="-26" y="-26" width="52" height="52" class="key"/>
<text x="0" y="0" class="key tap">H</text>
</g>
<g transform="translate(644, 84)" class="key keypos-20">
<rect rx="6" ry="6" x="-26" y="-26" width="52" height="52" class="key"/>
<text x="0" y="0" class="key tap">J</text>
</g>
<g transform="translate(700, 91)" class="key keypos-21">
<rect rx="6" ry="6" x="-26" y="-26" width="52" height="52" class="key"/>
<text x="0" y="0" class="key tap">K</text>
</g>
<g transform="translate(756, 105)" class="key keypos-22">
<rect rx="6" ry="6" x="-26" y="-26" width="52" height="52" class="key"/>
<text x="0" y="0" class="key tap">L</text>
</g>
<g transform="translate(812, 105)" class="key keypos-23">
<rect rx="6" ry="6" x="-26" y="-26" width="52" height="52" class="key"/>
<text x="0" y="0" class="key tap">Exit</text>
</g>
<g transform="translate(28, 161)" class="key keypos-24">
<rect rx="6" ry="6" x="-26" y="-26" width="52" height="52" class="key"/>
<text x="0" y="0" class="key tap">Alt</text>
</g>
<g transform="translate(84, 161)" class="key keypos-25">
<rect rx="6" ry="6" x="-26" y="-26" width="52" height="52" class="key"/>
<text x="0" y="0" class="key tap">Ctrl</text>
</g>
<g transform="translate(140, 147)" class="key keypos-26">
<rect rx="6" ry="6" x="-26" y="-26" width="52" height="52" class="key"/>
<text x="0" y="0" class="key tap">Z</text>
</g>
<g transform="translate(196, 140)" class="key keypos-27">
<rect rx="6" ry="6" x="-26" y="-26" width="52" height="52" class="key"/>
<text x="0" y="0" class="key tap">X</text>
</g>
<g transform="translate(252, 147)" class="key keypos-28">
<rect rx="6" ry="6" x="-26" y="-26" width="52" height="52" class="key"/>
<text x="0" y="0" class="key tap">C</text>
</g>
<g transform="translate(308, 154)" class="key keypos-29">
<rect rx="6" ry="6" x="-26" y="-26" width="52" height="52" class="key"/>
<text x="0" y="0" class="key tap">V</text>
</g>
<g transform="translate(532, 154)" class="key keypos-30">
<rect rx="6" ry="6" x="-26" y="-26" width="52" height="52" class="key"/>
<text x="0" y="0" class="key tap">B</text>
</g>
<g transform="translate(588, 147)" class="key keypos-31">
<rect rx="6" ry="6" x="-26" y="-26" width="52" height="52" class="key"/>
<text x="0" y="0" class="key tap">N</text>
</g>
<g transform="translate(644, 140)" class="key keypos-32">
<rect rx="6" ry="6" x="-26" y="-26" width="52" height="52" class="key"/>
<text x="0" y="0" class="key tap">M</text>
</g>
<g transform="translate(700, 147)" class="key keypos-33">
<rect rx="6" ry="6" x="-26" y="-26" width="52" height="52" class="key"/>
<text x="0" y="0" class="key tap">,</text>
</g>
<g transform="translate(756, 161)" class="key keypos-34">
<rect rx="6" ry="6" x="-26" y="-26" width="52" height="52" class="key"/>
<text x="0" y="0" class="key tap">.</text>
</g>
<g transform="translate(812, 161)" class="key keypos-35">
<rect rx="6" ry="6" x="-26" y="-26" width="52" height="52" class="key"/>
<text x="0" y="0" class="key tap">/</text>
</g>
<g transform="translate(224, 205)" class="key keypos-36">
<rect rx="6" ry="6" x="-26" y="-26" width="52" height="52" class="key"/>
<text x="0" y="0" class="key tap">M</text>
</g>
<g transform="translate(286, 213) rotate(15.0)" class="key keypos-37">
<rect rx="6" ry="6" x="-26" y="-26" width="52" height="52" class="key"/>
<text x="0" y="0" class="key tap">I</text>
</g>
<g transform="translate(351, 224) rotate(30.0)" class="key keypos-38">
<rect rx="6" ry="6" x="-26" y="-40" width="52" height="80" class="key"/>
<text x="0" y="0" class="key tap">Spc</text>
</g>
<g transform="translate(489, 224) rotate(-30.0)" class="key keypos-39">
<rect rx="6" ry="6" x="-26" y="-40" width="52" height="80" class="key"/>
<text x="0" y="0" class="key tap">Bspc</text>
</g>
<g transform="translate(554, 213) rotate(-15.0)" class="key keypos-40">
<rect rx="6" ry="6" x="-26" y="-26" width="52" height="52" class="key"/>
<text x="0" y="0" class="key tap">Enter</text>
</g>
<g transform="translate(616, 205)" class="key keypos-41">
<rect rx="6" ry="6" x="-26" y="-26" width="52" height="52" class="key"/>
<text x="0" y="0" class="key tap">Del</text>
</g>
</g>
</g>
</svg>
